<?xml version="1.0" encoding="utf-8"?>
<!-- Generator: Adobe Illustrator 21.0.2, SVG Export Plug-In . SVG Version: 6.00 Build 0)  -->
<svg version="1.1" id="Layer_1" xmlns="http://www.w3.org/2000/svg" xmlns:xlink="http://www.w3.org/1999/xlink" x="0px" y="0px"
	 viewBox="0 0 1000 1000" style="enable-background:new 0 0 1000 1000;" xml:space="preserve">
<style type="text/css">
	.st0{fill:#FFFFFF;}
</style>
<g>
	<path class="st0" d="M710,10H290c-38.7,0-70,31.3-70,70v840c0,38.7,31.3,70,70,70h420c38.6,0,70-31.3,70-70V80
		C780,41.3,748.6,10,710,10z M447.5,62.5h105c9.7,0,17.5,7.8,17.5,17.5s-7.8,17.5-17.5,17.5h-105c-9.7,0-17.5-7.8-17.5-17.5
		S437.8,62.5,447.5,62.5z M500,955c-29.1,0-52.5-23.4-52.5-52.5S470.9,850,500,850c29.1,0,52.5,23.4,52.5,52.5S529.1,955,500,955z
		 M727.5,815h-455V150h455V815z"/>
	<path class="st0" d="M62.5,500c0-69.8,21.6-136.4,62.5-192.7c8.5-11.8,5.9-28.2-5.8-36.7c-11.8-8.5-28.2-5.8-36.7,5.8
		C35.1,341.7,10,419,10,500s25.1,158.3,72.6,223.7c5.1,7,13.1,10.8,21.3,10.8c5.3,0,10.7-1.6,15.4-5.1c11.7-8.5,14.3-24.9,5.8-36.6
		C84.1,636.4,62.5,569.8,62.5,500z"/>
	<path class="st0" d="M154.4,500c0-44,12.1-86.9,35.1-124.1c7.6-12.3,3.8-28.5-8.5-36.1c-12.4-7.7-28.5-3.8-36.1,8.5
		c-28.1,45.5-43,98-43,151.7c0,54.3,15.1,107.2,43.8,152.9c5,8,13.5,12.4,22.3,12.4c4.8,0,9.6-1.3,13.9-4c12.3-7.7,16-23.9,8.3-36.2
		C166.7,587.7,154.4,544.4,154.4,500z"/>
	<path class="st0" d="M917.4,276.4c-8.5-11.6-24.8-14.3-36.7-5.8c-11.7,8.5-14.3,25-5.8,36.7c40.9,56.3,62.5,122.9,62.5,192.7
		s-21.6,136.4-62.5,192.8c-8.5,11.8-5.9,28.2,5.8,36.6c4.7,3.4,10.1,5.1,15.4,5.1c8.1,0,16.1-3.8,21.3-10.8
		C964.9,658.3,990,581,990,500S964.9,341.7,917.4,276.4z"/>
	<path class="st0" d="M855.2,348.3c-7.6-12.3-23.7-16.1-36.1-8.5c-12.3,7.6-16.1,23.8-8.5,36.1c23,37.2,35.1,80.1,35.1,124.1
		c0,44.4-12.4,87.7-35.8,125.1c-7.7,12.3-4,28.5,8.3,36.2c4.3,2.7,9.1,4,13.9,4c8.8,0,17.3-4.4,22.3-12.4
		c28.6-45.7,43.8-98.6,43.8-152.9C898.1,446.2,883.3,393.8,855.2,348.3z"/>
</g>
</svg>
