<?xml version="1.0" encoding="utf-8"?>
<!-- Generator: Adobe Illustrator 21.0.2, SVG Export Plug-In . SVG Version: 6.00 Build 0)  -->
<svg version="1.1" id="Layer_1" xmlns="http://www.w3.org/2000/svg" xmlns:xlink="http://www.w3.org/1999/xlink" x="0px" y="0px"
	 viewBox="0 0 121.7 39.7" style="enable-background:new 0 0 121.7 39.7;" xml:space="preserve">
<style type="text/css">
	.st0{fill:#FFFFFF;}
</style>
<rect class="st0" width="12" height="12"/>
<rect x="13.9" class="st0" width="12" height="12"/>
<rect x="13.9" y="13.9" class="st0" width="12" height="12"/>
<path class="st0" d="M1.3,15.1h9.5v9.5H1.3V15.1z M0,25.8h12v-12H0V25.8z"/>
<path class="st0" d="M1.3,29h9.5v9.5H1.3V29z M0,39.7h12v-12H0V39.7z"/>
<path class="st0" d="M27.7,25.8h12v-12h-12V25.8z M38.4,24.6H29v-9.5h9.5V24.6z"/>
<path class="st0" d="M29,29h9.5v9.5H29C29,38.4,29,29,29,29z M27.7,39.7h12v-12h-12V39.7z"/>
<rect x="13.9" y="27.7" class="st0" width="12" height="12"/>
<rect x="27.7" class="st0" width="12" height="12"/>
<polygon class="st0" points="51.6,0 51.6,4.8 58.7,4.8 58.7,25.8 64.1,25.8 64.1,4.8 71.1,4.8 71.1,0 "/>
<polygon class="st0" points="76.2,0 76.2,4.8 83.2,4.8 83.2,25.8 88.6,25.8 88.6,4.8 95.6,4.8 95.6,0 "/>
<g>
	<path class="st0" d="M121.7,23.5c-1.6,0.8-3.3,1.4-5,1.8c-1.7,0.4-3.5,0.6-5.3,0.6c-1.9,0-3.7-0.3-5.3-0.9c-1.6-0.6-3-1.5-4.2-2.6
		c-1.2-1.1-2.1-2.5-2.8-4.1c-0.7-1.6-1-3.4-1-5.3c0-2,0.3-3.7,1-5.3c0.7-1.6,1.6-3,2.8-4.1c1.2-1.1,2.6-2,4.2-2.6
		c1.6-0.6,3.4-0.9,5.3-0.9c2,0,3.8,0.2,5.4,0.7c1.7,0.5,3.1,1.3,4.4,2.4l-3.8,4.2c-0.7-0.8-1.6-1.3-2.5-1.7C114,5.2,112.8,5,111.4,5
		c-1.2,0-2.2,0.2-3.1,0.6c-0.9,0.4-1.7,0.9-2.4,1.6c-0.7,0.7-1.2,1.5-1.5,2.5c-0.4,1-0.5,2-0.5,3.2c0,1.2,0.2,2.2,0.5,3.2
		c0.4,1,0.9,1.8,1.5,2.5c0.7,0.7,1.5,1.3,2.4,1.7c0.9,0.4,2,0.6,3.1,0.6c1.2,0,2.2-0.1,3.1-0.4c0.9-0.3,1.5-0.5,2-0.8v-4h-3.4v-5
		h8.6C121.7,10.6,121.7,23.5,121.7,23.5z"/>
	<polygon class="st0" points="58.8,33.1 60.2,33.1 60.2,35.6 63,35.6 63,33.1 64.4,33.1 64.4,39.7 63,39.7 63,36.8 60.2,36.8 
		60.2,39.7 58.8,39.7 	"/>
	<path class="st0" d="M68.9,36.4c0-0.5,0.1-1,0.3-1.4c0.2-0.4,0.4-0.8,0.7-1c0.3-0.3,0.7-0.5,1.1-0.7c0.4-0.2,0.9-0.2,1.4-0.2
		c0.5,0,1,0.1,1.4,0.2c0.4,0.2,0.8,0.4,1.1,0.7c0.3,0.3,0.5,0.6,0.7,1c0.2,0.4,0.3,0.9,0.3,1.4c0,0.5-0.1,1-0.3,1.4
		c-0.2,0.4-0.4,0.8-0.7,1c-0.3,0.3-0.7,0.5-1.1,0.7c-0.4,0.2-0.9,0.2-1.4,0.2c-0.5,0-1-0.1-1.4-0.2c-0.4-0.2-0.8-0.4-1.1-0.7
		c-0.3-0.3-0.5-0.6-0.7-1C69,37.3,68.9,36.9,68.9,36.4 M70.3,36.4c0,0.3,0,0.6,0.1,0.8c0.1,0.2,0.2,0.5,0.4,0.6
		c0.2,0.2,0.4,0.3,0.6,0.4c0.2,0.1,0.5,0.2,0.8,0.2c0.3,0,0.6-0.1,0.8-0.2c0.3-0.1,0.5-0.2,0.6-0.4c0.2-0.2,0.3-0.4,0.4-0.6
		c0.1-0.2,0.1-0.5,0.1-0.8c0-0.3,0-0.6-0.1-0.8c-0.1-0.3-0.2-0.5-0.4-0.7c-0.2-0.2-0.4-0.3-0.6-0.4c-0.2-0.1-0.5-0.2-0.8-0.2
		c-0.3,0-0.6,0-0.8,0.2c-0.2,0.1-0.5,0.2-0.6,0.4c-0.2,0.2-0.3,0.4-0.4,0.7C70.4,35.8,70.3,36.1,70.3,36.4"/>
	<polygon class="st0" points="80.3,33.1 81.7,33.1 81.7,38.4 84.3,38.4 84.3,39.7 80.3,39.7 	"/>
	<path class="st0" d="M88.8,33.1h2.1c0.5,0,1,0.1,1.5,0.2c0.5,0.1,0.9,0.3,1.2,0.6c0.3,0.3,0.6,0.6,0.8,1c0.2,0.4,0.3,0.9,0.3,1.5
		c0,0.5-0.1,1-0.3,1.4c-0.2,0.4-0.5,0.8-0.8,1c-0.3,0.3-0.7,0.5-1.1,0.6c-0.4,0.1-0.9,0.2-1.4,0.2h-2.3
		C88.8,39.7,88.8,33.1,88.8,33.1z M90.2,38.3h0.7c0.3,0,0.6,0,0.9-0.1c0.3-0.1,0.5-0.2,0.7-0.3c0.2-0.2,0.4-0.4,0.5-0.6
		c0.1-0.3,0.2-0.6,0.2-0.9c0-0.3-0.1-0.6-0.2-0.8c-0.1-0.2-0.3-0.4-0.5-0.6c-0.2-0.2-0.4-0.3-0.7-0.3c-0.3-0.1-0.6-0.1-0.9-0.1h-0.8
		C90.2,34.4,90.2,38.3,90.2,38.3z"/>
	<rect x="99.2" y="33.1" class="st0" width="1.4" height="6.6"/>
	<polygon class="st0" points="105,33.1 107,33.1 109.7,37.7 109.7,37.7 109.7,33.1 111.1,33.1 111.1,39.7 109.3,39.7 106.5,35 
		106.4,35 106.4,39.7 105,39.7 	"/>
	<path class="st0" d="M121.7,39.1c-0.4,0.2-0.9,0.4-1.3,0.5c-0.5,0.1-0.9,0.1-1.4,0.1c-0.5,0-1-0.1-1.4-0.2
		c-0.4-0.2-0.8-0.4-1.1-0.7c-0.3-0.3-0.5-0.6-0.7-1c-0.2-0.4-0.3-0.9-0.3-1.4c0-0.5,0.1-1,0.3-1.4c0.2-0.4,0.4-0.8,0.7-1
		c0.3-0.3,0.7-0.5,1.1-0.7c0.4-0.2,0.9-0.2,1.4-0.2c0.5,0,1,0.1,1.4,0.2c0.4,0.1,0.8,0.3,1.1,0.6l-1,1.1c-0.2-0.2-0.4-0.3-0.7-0.4
		c-0.2-0.1-0.5-0.2-0.9-0.2c-0.3,0-0.6,0-0.8,0.2c-0.2,0.1-0.5,0.2-0.6,0.4c-0.2,0.2-0.3,0.4-0.4,0.7c-0.1,0.2-0.1,0.5-0.1,0.8
		c0,0.3,0,0.6,0.1,0.8c0.1,0.2,0.2,0.5,0.4,0.6c0.2,0.2,0.4,0.3,0.6,0.4c0.2,0.1,0.5,0.2,0.8,0.2c0.3,0,0.6,0,0.8-0.1
		c0.2-0.1,0.4-0.1,0.5-0.2v-1h-1.2v-1.3h2.5C121.7,35.8,121.7,39.1,121.7,39.1z"/>
</g>
</svg>
